<svg width="139" height="100" viewBox="0 0 139 100" fill="none" xmlns="http://www.w3.org/2000/svg">
<path d="M45.6204 29.712L45.9133 30.0049L46.6204 29.2978C45.9133 30.0049 45.9135 30.0051 45.9136 30.0052L45.914 30.0056L45.9148 30.0064L45.9166 30.0082L45.9209 30.0124L45.9326 30.0239C45.9418 30.0327 45.9536 30.044 45.968 30.0574C45.9967 30.0842 46.0358 30.1197 46.084 30.1611C46.1795 30.2429 46.3158 30.3521 46.4818 30.4627C46.7698 30.6547 47.2776 30.9406 47.8795 30.9623C47.2518 30.9846 46.705 31.2944 46.3294 31.67C45.9394 32.06 45.6204 32.6345 45.6204 33.2926V43.9454C45.6204 44.6035 45.9394 45.1779 46.3294 45.568C46.7194 45.958 47.2939 46.277 47.952 46.277H59.9364C60.5945 46.277 61.169 45.958 61.559 45.568C61.6963 45.4306 61.8249 45.2704 61.9338 45.0917C62.0427 45.2704 62.1712 45.4306 62.3086 45.568C62.6986 45.958 63.273 46.277 63.9312 46.277H75.9156C76.5737 46.277 77.1481 45.958 77.5382 45.568C77.9138 45.1924 78.2235 44.6457 78.2459 44.018C78.2683 44.6457 78.578 45.1924 78.9536 45.568C79.3436 45.958 79.918 46.277 80.5762 46.277H92.5606C93.2187 46.277 93.7931 45.958 94.1832 45.568C94.5732 45.1779 94.8922 44.6035 94.8922 43.9454V33.2926C94.8922 32.6345 94.5732 32.06 94.1832 31.67C93.7931 31.28 93.2187 30.961 92.5606 30.961H80.5762C79.918 30.961 79.3436 31.28 78.9536 31.67C78.578 32.0456 78.2683 32.5922 78.2459 33.22C78.2235 32.5922 77.9138 32.0456 77.5382 31.67C77.1626 31.2944 76.616 30.9847 75.9883 30.9623C76.616 30.9399 77.1626 30.6302 77.5382 30.2546C77.9282 29.8646 78.2472 29.2901 78.2472 28.632V18.645V18.2308L77.9543 17.9379L77.0388 17.0224L76.7371 16.7207L76.6526 16.6362L76.6303 16.6139L76.6246 16.6082L76.6232 16.6068L76.6228 16.6064L76.6227 16.6063L75.9156 17.3134L76.6227 16.6063L76.3298 16.3134H75.9156H63.9312C63.2731 16.3134 62.6986 16.6324 62.3086 17.0224C62.1712 17.1598 62.0427 17.32 61.9338 17.4987C61.8249 17.32 61.6963 17.1598 61.559 17.0224C61.1689 16.6324 60.5945 16.3134 59.9364 16.3134H47.952C47.2939 16.3134 46.7194 16.6324 46.3294 17.0224C45.9394 17.4124 45.6204 17.9869 45.6204 18.645V29.2978V29.712ZM61.559 31.67C61.1834 31.2944 60.6368 30.9847 60.0091 30.9623C60.6368 30.9399 61.1834 30.6302 61.559 30.2546C61.6537 30.1599 61.7442 30.0543 61.8269 29.9393L61.8925 30.0049L62.5996 29.2978C61.8925 30.0049 61.8927 30.0051 61.8928 30.0052L61.8932 30.0056L61.894 30.0064L61.8958 30.0082L61.9001 30.0124L61.9118 30.0239C61.9174 30.0293 61.924 30.0357 61.9316 30.0428C61.9364 30.0474 61.9416 30.0523 61.9472 30.0574C61.9759 30.0842 62.015 30.1197 62.0632 30.1611C62.1586 30.2429 62.295 30.3521 62.461 30.4627C62.749 30.6547 63.2568 30.9406 63.8587 30.9623C63.2309 30.9846 62.6842 31.2944 62.3086 31.67C62.1712 31.8074 62.0427 31.9676 61.9338 32.1463C61.8249 31.9676 61.6963 31.8074 61.559 31.67ZM13.9549 45.9841L14.2478 46.277H14.662H26.6464C27.3045 46.277 27.879 45.958 28.269 45.568C28.6446 45.1924 28.9543 44.6458 28.9767 44.0182C28.9991 44.6458 29.3088 45.1924 29.6844 45.568C30.0744 45.958 30.6489 46.277 31.307 46.277H42.6256C43.2837 46.277 43.8582 45.958 44.2482 45.568C44.6382 45.1779 44.9572 44.6035 44.9572 43.9454V33.2926C44.9572 32.6345 44.6382 32.06 44.2482 31.67C43.8726 31.2944 43.326 30.9847 42.6983 30.9623C43.326 30.9399 43.8726 30.6302 44.2482 30.2546C44.6382 29.8646 44.9572 29.2901 44.9572 28.632V18.645C44.9572 17.9869 44.6382 17.4124 44.2482 17.0224C43.8582 16.6324 43.2837 16.3134 42.6256 16.3134H31.307C30.6489 16.3134 30.0744 16.6324 29.6844 17.0224C29.2944 17.4124 28.9754 17.9869 28.9754 18.645V29.2978V29.712L29.2683 30.0049L29.9754 29.2978C29.2683 30.0049 29.2685 30.0051 29.2686 30.0052L29.269 30.0056L29.2698 30.0064L29.2716 30.0082L29.2759 30.0124L29.2876 30.0239C29.2968 30.0327 29.3086 30.044 29.323 30.0575C29.3517 30.0842 29.3908 30.1197 29.439 30.1611C29.5345 30.2429 29.6708 30.3521 29.8368 30.4627C30.1248 30.6547 30.6326 30.9406 31.2345 30.9623C30.6067 30.9846 30.06 31.2944 29.6844 31.67C29.3088 32.0456 28.9991 32.5922 28.9767 33.2198C28.9543 32.5922 28.6446 32.0456 28.269 31.67C27.879 31.28 27.3045 30.961 26.6464 30.961H14.662C14.0039 30.961 13.4294 31.28 13.0394 31.67C12.6494 32.06 12.3304 32.6345 12.3304 33.2926V43.9454V44.3596L12.6233 44.6525L13.5388 45.568L13.8405 45.8697L13.925 45.9542L13.9473 45.9765L13.953 45.9822L13.9544 45.9836L13.9548 45.984L13.9549 45.9841L13.9549 45.9841L14.662 45.277L13.9549 45.9841ZM107.763 20.4761L106.931 19.9214L106.376 20.7535L105.151 22.5912C102.934 24.1668 101.577 27.0742 100.906 30.4099C99.6396 35.4961 100.106 40.653 102.398 44.768C99.5654 45.7788 96.7174 46.3552 93.7932 46.9402H6.67241C5.34848 46.9402 4.10825 47.5921 3.21888 48.4815C2.32951 49.3708 1.67761 50.6111 1.67761 51.935C1.67761 60.0432 3.03031 67.4826 5.73262 74.9139C8.46442 82.4264 13.2541 88.5953 19.4337 92.715L19.4855 92.7495L19.5412 92.7774C29.0085 97.511 39.1607 99.5463 49.3169 98.8752C54.6944 98.8724 60.0611 98.2015 65.3557 97.5397L65.3868 97.5358L65.4144 97.5324L65.4417 97.5274C72.8788 96.1752 80.317 93.471 87.0829 89.4115L87.0907 89.4068L87.0984 89.402C92.5091 86.0203 97.2289 81.9709 101.923 77.2767L101.958 77.2414L101.99 77.2028C107.908 69.9697 112.547 62.0866 115.899 52.935H116.529C122.077 52.935 127.611 50.8653 131.777 47.4105C133.957 45.9402 135.393 43.7632 136.114 40.9671L136.732 39.732L137.179 38.8376L136.285 38.3904L134.987 37.7416C131.611 35.7231 127.411 34.2663 123.757 34.9558C122.797 34.9558 121.787 34.9579 120.85 35.0431C120.307 35.0925 119.759 35.1718 119.235 35.3061C117.715 29.5748 114.391 24.4649 109.732 21.789L107.763 20.4761ZM63.9312 15.6502H75.9156C76.5737 15.6502 77.1481 15.3312 77.5382 14.9412C77.9282 14.5512 78.2472 13.9767 78.2472 13.3186V3.3316C78.2472 2.67347 77.9282 2.09904 77.5382 1.70902C77.1481 1.319 76.5737 1 75.9156 1H63.9312C63.2731 1 62.6986 1.319 62.3086 1.70902C61.9186 2.09904 61.5996 2.67347 61.5996 3.3316V13.9844C61.5996 14.3238 61.6878 14.6787 61.9247 14.9833C62.1548 15.2792 62.4523 15.4333 62.6995 15.5157C63.109 15.6522 63.5896 15.651 63.8758 15.6503C63.8952 15.6502 63.9137 15.6502 63.9312 15.6502Z" fill="url(#paint0_linear_145_359)" stroke="#222831" stroke-width="2" stroke-linecap="round"/>
<defs>
<linearGradient id="paint0_linear_145_359" x1="2.98828" y1="98" x2="135.988" y2="1.99999" gradientUnits="userSpaceOnUse">
<stop stop-color="#26A2D7"/>
<stop offset="1" stop-color="#03F0FF"/>
</linearGradient>
</defs>
</svg>
