<svg width="76" height="101" viewBox="0 0 76 101" fill="none" xmlns="http://www.w3.org/2000/svg">
<path d="M49.7111 37.409L50.2583 36.8995L49.9244 36.2306L40.2485 16.8468L40.2383 16.8264L40.2272 16.8065C39.5445 15.582 38.4989 14.7315 37.2339 14.7365C35.9741 14.7414 34.9323 15.5937 34.2508 16.8022L34.2275 16.8434L34.2083 16.8867L29.6043 27.2266L29.4131 27.6561L29.6218 28.0773L38.5337 46.0611L39.1294 47.2632L40.1113 46.3489L49.7111 37.409Z" fill="#FFA000" stroke="#222831" stroke-width="2" stroke-linecap="round"/>
<path d="M40.1109 46.3447L40.6571 45.8367L40.3258 45.1684L31.4139 27.1886L30.544 25.4335L29.6328 27.1675L2.62908 78.5509L4.19532 79.7483L40.1109 46.3447Z" fill="#F57F17" stroke="#222831" stroke-width="2" stroke-linecap="round"/>
<path d="M37.8978 97.9998C37.9794 98.9964 37.9795 98.9964 37.9796 98.9964L37.9799 98.9964L37.9807 98.9963L37.9829 98.9961L37.9906 98.9955L38.0179 98.9931C38.0413 98.9911 38.075 98.988 38.1177 98.984C38.2031 98.9759 38.3251 98.9638 38.4743 98.9474C38.772 98.9146 39.1821 98.8641 39.6295 98.7935C40.0749 98.7233 40.5697 98.6312 41.0333 98.5133C41.4812 98.3993 41.9662 98.2452 42.3535 98.0287L42.3671 98.0211L42.3804 98.0131L73.3481 79.4213L73.9348 79.0691L73.8189 78.3946L64.483 24.0753L64.4813 24.0653L64.4794 24.0554C64.2181 22.6998 63.506 21.562 62.3044 21.1842C61.1062 20.8075 59.8675 21.3274 58.8674 22.2809L58.8589 22.2891L58.8506 22.2974L2.81126 78.3087L1.89745 79.222L3.01075 79.8777L33.7664 97.9894L33.7791 97.9969L33.792 98.0041C34.4531 98.3675 35.5128 98.6075 36.2748 98.753C36.6823 98.8308 37.0556 98.8903 37.3265 98.9304C37.4623 98.9505 37.5732 98.9658 37.6509 98.9761C37.6897 98.9813 37.7203 98.9853 37.7416 98.988L37.7664 98.9911L37.7734 98.992L37.7754 98.9922L37.7761 98.9923L37.7763 98.9924C37.7764 98.9924 37.7765 98.9924 37.8978 97.9998ZM37.8978 97.9998L37.9794 98.9964L37.8778 99.0047L37.7765 98.9924L37.8978 97.9998Z" fill="#FFCA28" stroke="#222831" stroke-width="2" stroke-linecap="round"/>
<path d="M31.4031 28.0983L31.6405 27.6464L31.4139 27.189L19.406 2.96134L19.392 2.93312L19.3763 2.90583C19.0416 2.32548 18.6588 1.83599 18.223 1.49775C17.7836 1.1567 17.2148 0.917425 16.5837 1.02655C15.9543 1.13537 15.4987 1.54999 15.1973 2.01457C14.8975 2.47653 14.6957 3.06294 14.5684 3.71881L14.5652 3.73497L14.5626 3.75123L2.53078 78.8583L4.40342 79.4816L31.4031 28.0983Z" fill="#FFA000" stroke="#222831" stroke-width="2" stroke-linecap="round"/>
</svg>
