<svg width="101" height="100" viewBox="0 0 101 100" fill="none" xmlns="http://www.w3.org/2000/svg">
<path d="M23.3455 80.291L23.3476 80.2973C23.351 80.3082 23.3573 80.3274 23.3666 80.3545C23.3853 80.4088 23.4162 80.494 23.461 80.6052C23.5507 80.8277 23.6956 81.152 23.9096 81.5369C24.3383 82.3082 25.0371 83.31 26.1134 84.2264C28.2228 86.0227 31.9361 87.6223 38.339 86.1969L39.549 85.9276L39.5563 87.1672C39.5691 89.3563 39.5871 91.2663 39.6011 92.7485C39.6132 94.0349 39.6223 94.999 39.6223 95.5433C39.6223 96.3954 39.3388 97.3958 38.5681 98.1181C37.7632 98.8724 36.5952 99.1683 35.1606 98.8972L35.0898 98.8839L35.0216 98.8605C25.2449 95.504 16.7521 89.096 10.7408 80.5461C4.72993 71.9965 1.50337 61.7365 1.51431 51.216C1.51459 23.5059 23.4307 1 50.5083 1C77.5975 1 99.5137 23.5054 99.5143 51.2154C99.5261 61.7294 96.3048 71.9837 90.3022 80.5313C84.2994 89.0792 75.8171 95.4896 66.0499 98.854L65.9858 98.8761L65.9192 98.8893C64.4701 99.1773 63.29 98.8921 62.4775 98.1316C61.7009 97.4048 61.4243 96.3947 61.4243 95.5433C61.4243 95.0063 61.4309 94.0619 61.4397 92.803C61.4442 92.1629 61.4493 91.4415 61.4543 90.6509C61.4693 88.3013 61.4843 85.3318 61.4843 82.0443C61.4843 77.6692 60.0226 74.969 58.5646 73.6824L56.8779 72.1939L59.113 71.939C64.3993 71.3361 69.6303 70.0205 73.5404 66.6636C77.4056 63.3453 80.1383 57.8905 80.1383 48.6491C80.1383 43.5257 78.3779 39.3683 75.4607 36.1045L75.0493 35.6443L75.2764 35.0703C75.6981 34.004 77.2031 29.506 74.9926 23.3134C74.9653 23.3116 74.9367 23.31 74.9068 23.3086C74.4777 23.2883 73.775 23.3133 72.7792 23.5285C70.7859 23.9592 67.6094 25.1539 63.1089 28.2812L62.7225 28.5497L62.2693 28.4231C58.4402 27.3536 54.4894 26.8076 50.5201 26.7994C46.551 26.8045 42.6001 27.3484 38.7711 28.4171L38.3182 28.5435L37.9319 28.2752C33.4285 25.1479 30.249 23.9532 28.2533 23.5224C27.2564 23.3072 26.5527 23.2822 26.1227 23.3025C26.0926 23.3039 26.0638 23.3055 26.0363 23.3073C23.8315 29.4946 25.3372 33.9975 25.7627 35.0603L25.9929 35.6354L25.5805 36.0976C22.667 39.3637 20.8903 43.522 20.8903 48.643C20.8903 57.8593 23.6197 63.3188 27.4797 66.65C31.3835 70.0192 36.6038 71.3552 41.8702 71.97L44.0736 72.2272L42.4218 73.7079C41.2566 74.7523 40.1035 76.6874 39.6972 79.6788L39.6233 80.2224L39.1252 80.4522C37.6873 81.1156 35.0766 82.0521 32.2085 81.7893C29.268 81.5198 26.1677 79.9962 23.8634 75.9522L23.857 75.9409L23.8519 75.9314L23.8519 75.9313L23.8515 75.9306L23.8512 75.9301L23.8509 75.9295L23.8493 75.9267L23.8334 75.8982C23.818 75.8711 23.793 75.8282 23.7587 75.7715C23.69 75.658 23.5839 75.4903 23.4411 75.2855C23.1546 74.8746 22.7255 74.3222 22.16 73.7614C21.0273 72.6384 19.413 71.5443 17.3448 71.3835L17.3396 71.3835C17.3144 71.3838 17.2752 71.3844 17.2253 71.3862C17.1245 71.3898 16.9848 71.3979 16.8305 71.4153C16.6546 71.4352 16.4985 71.4633 16.3713 71.4954C16.559 71.713 16.9182 72.0508 17.5785 72.5171C17.6112 72.5346 17.6519 72.5572 17.7001 72.5852C17.814 72.6513 17.9695 72.7479 18.1583 72.8801C18.536 73.1447 19.0462 73.5519 19.6223 74.144C20.7769 75.3306 22.1827 77.2462 23.3201 80.216L23.3343 80.253L23.3455 80.291ZM23.3455 80.291L23.3452 80.2899L23.3449 80.2889L23.3445 80.2876L23.3455 80.291ZM16.0731 71.6081C16.073 71.6081 16.0739 71.6073 16.0761 71.6059C16.0742 71.6073 16.0732 71.608 16.0731 71.6081Z" fill="url(#paint0_linear_144_886)" stroke="#222831" stroke-width="2" stroke-linecap="round"/>
<defs>
<linearGradient id="paint0_linear_144_886" x1="2.1203" y1="98" x2="98.1203" y2="2" gradientUnits="userSpaceOnUse">
<stop/>
<stop offset="1" stop-color="#272727"/>
</linearGradient>
</defs>
</svg>
