<svg width="101" height="100" viewBox="0 0 101 100" fill="none" xmlns="http://www.w3.org/2000/svg">
<path d="M2.16248 1H1.16248V2V98V99H2.16248H98.1625H99.1625V98V2V1H98.1625H2.16248ZM52.0629 83.3252L52.0534 83.3426L52.0446 83.3604C50.7849 85.9202 48.3573 87.6596 45.4336 88.5178C40.8366 89.5668 36.5164 88.9452 33.3554 87.0499C31.4985 85.9095 29.9762 84.2096 28.8548 82.2019L34.5231 78.7307C35.4729 80.3184 36.4007 81.6221 38.2361 82.5238L38.2935 82.552L38.3541 82.5727C39.2473 82.8775 40.6544 83.1269 42.0605 82.9055C43.4892 82.6806 44.9991 81.9465 45.841 80.2278C46.1336 79.7031 46.282 79.0111 46.3721 78.311C46.4682 77.5658 46.5124 76.6803 46.531 75.7131C46.5529 74.5679 46.5389 73.2443 46.5241 71.8464C46.5141 70.9074 46.5038 69.9349 46.5038 68.9604C46.5034 64.989 46.5125 61.083 46.5215 57.1869C46.5296 53.7219 46.5376 50.2646 46.5389 46.776H53.5318C53.5329 49.276 53.5375 51.7375 53.542 54.1792C53.5522 59.6365 53.5622 64.9948 53.5316 70.4631L53.5316 70.4725C53.5346 71.2494 53.5469 72.0005 53.5588 72.7304C53.5866 74.4334 53.6125 76.0209 53.5138 77.5505C53.3748 79.7055 52.9906 81.6147 52.0629 83.3252ZM34.1051 78.0175C34.1052 78.0177 34.1054 78.0179 34.1055 78.0181L34.1051 78.0175ZM89.3031 80.9304L89.2943 80.9554L89.2869 80.9808C87.8852 85.7754 83.2374 88.3923 77.8317 88.9122C72.4323 89.4314 66.6772 87.8007 63.4598 84.5532C63.248 84.3141 63.0503 84.0939 62.8647 83.8872C61.9583 82.8777 61.3396 82.1886 60.7762 81.1812C63.4253 79.6573 63.8792 79.3954 66.4525 77.9067C67.2878 79.0991 68.1519 80.1002 69.1616 80.8997C70.4006 81.8809 71.8135 82.5232 73.5749 82.8895L73.6158 82.898L73.6572 82.903C75.9776 83.1864 78.4413 82.9525 80.2416 81.9012C81.1597 81.365 81.9235 80.6035 82.368 79.5825C82.8123 78.5619 82.8996 77.3696 82.6164 76.0363L82.611 76.0109L82.6043 75.9858C82.2625 74.7076 81.3577 73.7581 80.284 73.0028C79.2124 72.2491 77.8608 71.6116 76.4515 70.9988C75.9852 70.7961 75.5106 70.5949 75.0314 70.3917C72.5418 69.3365 69.9298 68.2293 67.7441 66.5885L67.7231 66.5728L67.7013 66.5581C65.2128 64.8868 63.6265 61.9784 63.2092 58.8376C62.7921 55.6995 63.5587 52.4548 65.6091 50.1282L65.6261 50.109L65.642 50.0889C66.9731 48.4127 69.3142 47.085 71.8646 46.4305L74.5828 46.079C79.7743 45.9839 82.8496 47.3509 85.0965 49.86L85.1127 49.878L85.1297 49.8953C85.63 50.4022 86.0667 50.9484 86.7707 52.0002C86.5496 52.1409 86.3475 52.2695 86.1584 52.3898C84.7162 53.3075 84.0306 53.7437 81.4847 55.3906C80.4733 53.8002 79.049 52.7466 77.5314 52.2382L77.5176 52.2336L77.5037 52.2294C76.1058 51.8059 74.516 51.8169 73.1523 52.326C71.7726 52.8411 70.5735 53.8947 70.1595 55.5453C69.8755 56.5759 69.9692 57.5089 70.335 58.8736L70.3546 58.9468L70.3851 59.0163C71.0162 60.4554 72.3422 61.3895 73.6987 62.1039C74.5373 62.5456 75.5232 62.9658 76.4788 63.3732C77.0362 63.6107 77.5833 63.8439 78.0849 64.0745L78.1055 64.084L78.1266 64.0925C82.2945 65.7829 84.9899 67.499 86.7197 69.2628C88.4267 71.0034 89.2299 72.827 89.5512 74.8296L89.5526 74.8387L89.5543 74.8478C90.1912 78.3979 89.3963 80.6646 89.3031 80.9304Z" fill="url(#paint0_linear_144_890)" stroke="#222831" stroke-width="2" stroke-linecap="round"/>
<defs>
<linearGradient id="paint0_linear_144_890" x1="2.58844" y1="98" x2="98.5884" y2="2" gradientUnits="userSpaceOnUse">
<stop stop-color="#F0DB4F"/>
<stop offset="1" stop-color="#FFF29C"/>
</linearGradient>
</defs>
</svg>
