<svg width="190" height="100" viewBox="0 0 190 100" fill="none" xmlns="http://www.w3.org/2000/svg">
<path d="M47.9707 68.7559H50.3849H56.5072H57.5072V69.7559V83.0797V83.1188L57.5042 83.1578C57.4893 83.3474 57.5223 83.6384 57.7544 83.8884C57.9855 84.1374 58.5859 84.5314 60.1095 84.5559C60.1096 84.5559 60.1097 84.5559 60.1098 84.5559L60.0938 85.5558C61.6694 85.5805 71.5415 85.5597 73.1816 85.5562C73.3229 85.5559 73.4031 85.5558 73.4117 85.5558L47.9707 68.7559ZM47.9707 68.7559L49.4182 70.2034C49.4201 70.2606 49.4219 70.3253 49.4237 70.3977C49.4326 70.7656 49.4383 71.2906 49.4414 71.9255C49.4475 73.1933 49.4433 74.8768 49.4349 76.5681C49.4239 78.7923 49.4056 81.0436 49.3949 82.3575C49.3894 83.0314 49.386 83.4588 49.3865 83.5093L49.3866 83.5148C49.4185 85.4915 50.6864 87.1842 52.5967 88.3429C54.5141 89.5058 57.1799 90.2089 60.3396 90.2377V90.2378H60.3487H72.364M47.9707 68.7559L72.364 90.2378M72.364 90.2378V90.8447V90.847C72.3642 90.9766 72.3687 91.0887 72.3727 91.1887C72.3853 91.504 72.393 91.6978 72.2492 91.9365C72.1098 92.1678 71.6289 92.6813 69.8308 92.8788L69.8251 92.8788L69.6621 92.8793C69.5188 92.8796 69.3096 92.8798 69.0436 92.8801C68.5118 92.8805 67.7544 92.8808 66.8466 92.881C65.031 92.8815 62.6143 92.8815 60.1979 92.8813C55.3656 92.8809 50.5339 92.8798 50.5176 92.8798H49.5176V93.8798V98V99H50.5176H69.8549H69.8694L69.884 98.9996C71.4896 98.9528 74.0735 98.6294 76.2898 97.5793C78.5317 96.517 80.5611 94.611 80.5429 91.4129V91.4109L80.5429 91.3972L80.543 91.3469L80.5432 91.1584L80.5443 90.4579L80.5478 87.9847C80.5506 85.9437 80.554 83.2307 80.5565 80.5204C80.559 77.8102 80.5606 75.1024 80.5599 73.072C80.5595 72.0569 80.5585 71.2103 80.5567 70.6172C80.5558 70.3209 80.5547 70.0863 80.5534 69.9251C80.5527 69.8451 80.552 69.7801 80.5511 69.7337C80.5507 69.7117 80.5502 69.6876 80.5493 69.6664C80.549 69.6581 80.5481 69.6372 80.5462 69.613L80.5461 69.6125C80.5454 69.604 80.5427 69.5701 80.5358 69.5282C80.531 69.5014 80.513 69.4245 80.4978 69.3748C80.4473 69.2511 80.0206 68.8086 79.5488 68.6903H73.4117H72.4117V69.6903V84.5578L72.364 90.2378ZM8.95863 90.442H9.95863V89.442V69.9205L17.5255 86.7472C18.1337 88.134 18.908 89.1939 20.0401 89.8804C21.16 90.5595 22.5034 90.7953 24.0921 90.7953C25.6804 90.7953 27.013 90.5597 28.1212 89.8766C29.2395 89.1874 29.9962 88.1256 30.6007 86.7471C30.6013 86.7456 30.602 86.7441 30.6027 86.7426L38.1675 69.9205V89.442V90.442H39.1675H45.2913H46.2913V89.442V65.2988C46.2913 63.9951 46.031 62.8862 45.3838 62.0031C44.7348 61.1176 43.7937 60.5912 42.6989 60.2598C40.2465 59.4952 38.0755 59.4048 36.2739 60.0199C34.4436 60.6448 33.1128 61.9582 32.3062 63.751L32.3052 63.7532L23.9295 82.4855L15.8246 63.7636C15.8245 63.7634 15.8244 63.7632 15.8244 63.763C15.0451 61.9579 13.7081 60.6432 11.8712 60.019C10.0637 59.4049 7.87904 59.4941 5.42551 60.2584C4.33105 60.5905 3.38994 61.1168 2.74092 62.0021C2.09365 62.885 1.83337 63.9936 1.83337 65.2973V89.442V90.442H2.83337H2.83486H8.95863ZM69.8678 92.8786C69.8691 92.8785 69.8683 92.8786 69.8642 92.8786L69.8678 92.8786Z" fill="url(#paint0_linear_145_364)" stroke="#222831" stroke-width="2" stroke-linecap="round"/>
<path d="M83.2699 89.4421V90.4421H84.2699H101.878C104.067 90.4421 106.217 89.9866 107.953 89.173C109.368 88.5228 110.501 87.7217 111.284 86.7245C112.081 85.7094 112.476 84.5382 112.476 83.2393V78.7643C112.476 76.3629 110.492 74.4634 107.477 73.3165C105.813 72.6754 103.803 72.3486 101.876 72.3486H94.4557C93.2928 72.3486 92.5985 72.1683 92.1889 71.9173C91.8351 71.7005 91.6021 71.3757 91.4959 70.7792L91.4861 70.7245L91.4704 70.6712C91.4579 70.629 91.4532 70.6058 91.4532 70.4045V67.6169C91.4532 67.4637 91.457 67.4353 91.4698 67.3924L91.4783 67.3638L91.4851 67.3346C91.5943 66.8677 91.714 66.7588 91.8621 66.6739C92.1215 66.5253 92.6213 66.3964 93.7108 66.2974L94.2546 66.2616H111.712H112.712V65.2616V61.1801V60.1801H111.712H94.5169C92.0066 60.1801 90.5983 60.3376 89.2834 60.7321L89.2834 60.732L89.2729 60.7353C87.3589 61.3324 85.8499 62.1432 84.8245 63.3269C83.7775 64.5356 83.328 66.0237 83.328 67.7749V71.3466C83.328 73.1403 84.3544 74.6902 85.9725 75.8185C87.5854 76.9433 89.8524 77.7083 92.5864 77.9953L92.607 77.9975L92.6278 77.9988C92.6867 78.0025 92.7461 78.0063 92.806 78.0102C93.3322 78.0439 93.8935 78.0798 94.4572 78.0798H100.818C101.091 78.0798 101.208 78.0846 101.261 78.0957L101.323 78.1088L101.386 78.1139C103.256 78.2644 103.732 78.5875 104.057 78.9754L104.085 79.0093L104.116 79.0406C104.211 79.1352 104.247 79.2018 104.263 79.2427C104.28 79.2838 104.293 79.3392 104.293 79.4321V83.0053C104.293 83.0049 104.293 83.005 104.293 83.0056C104.292 83.0126 104.285 83.0832 104.21 83.2096C104.133 83.3419 103.997 83.5071 103.786 83.6764L103.765 83.6928L103.746 83.7103C103.449 83.9745 102.819 84.2521 101.756 84.3239C101.755 84.3239 101.754 84.324 101.753 84.3241L101.141 84.3606H84.2699H83.2699V85.3606V89.4421ZM148.684 81.3375H148.683V82.3375C148.683 84.724 149.59 86.6714 151.432 88.0493C153.219 89.3859 155.794 90.1191 159.029 90.3618L159.038 90.3624L159.054 90.3634C159.632 90.4016 160.249 90.4421 160.871 90.4421H176.83H177.83V89.4421V85.3606V84.3606H176.83H160.754C158.992 84.3606 158.001 84.1291 157.467 83.7927C157.048 83.5289 156.808 83.1369 156.808 82.2972V61.1771V60.1771H155.808H149.684H148.684V61.1771V81.3375ZM148.895 92.905L143.941 88.4345C144.699 87.9622 145.327 87.3839 145.803 86.6564C146.539 85.5321 146.835 84.1673 146.835 82.5492V67.9926C146.835 65.8795 146.079 64.1074 144.547 62.789C143.053 61.5032 140.906 60.7212 138.24 60.3535L138.236 60.353C137.607 60.2686 137.032 60.2263 136.393 60.2263H124.767C124.197 60.2263 123.557 60.2677 122.974 60.3542C120.31 60.7223 118.165 61.5045 116.673 62.7897C115.141 64.1083 114.385 65.8803 114.385 67.9926V82.5492C114.385 84.4412 114.92 86.0516 116.072 87.3345C117.206 88.5957 118.852 89.4463 120.905 90.0058C122.282 90.382 123.55 90.5524 124.767 90.5524H131.319H131.351L131.382 90.5504L135.875 90.2655L140.443 94.3896L140.728 94.6474H141.113H148.225H150.826L148.895 92.905ZM122.995 82.1959V81.1959H122.993V68.3503C122.993 67.793 123.241 67.3325 123.776 66.9722C124.343 66.5906 125.25 66.3212 126.477 66.3212H135.743C137.923 66.3212 138.876 67.1319 139.076 68.0186L139.083 68.0507L139.093 68.0821C139.096 68.0943 139.102 68.12 139.105 68.1669C139.109 68.2166 139.11 68.2684 139.11 68.3503V82.3151C139.11 82.4196 139.109 82.4811 139.105 82.5366C139.101 82.5867 139.096 82.6109 139.093 82.6221L139.083 82.656L139.075 82.6905C138.999 83.0355 138.837 83.3387 138.577 83.5954L134.714 80.1062L134.429 79.8483H134.044H126.932H124.332L126.262 81.5905L129.442 84.462H126.479C125.388 84.462 124.58 84.2476 124.036 83.9213C123.517 83.6098 123.208 83.181 123.091 82.622L123.087 82.6014L123.082 82.581C123.072 82.5402 123.063 82.5051 123.055 82.474C123.035 82.3973 123.021 82.3447 123.01 82.289C123.002 82.2559 122.999 82.2333 122.997 82.2175C122.995 82.2022 122.995 82.1958 122.995 82.1959Z" fill="url(#paint1_linear_145_364)" stroke="#222831" stroke-width="2" stroke-linecap="round"/>
<path d="M170.785 43.3389C171.363 43.6302 171.971 43.8927 172.614 44.1703C172.816 44.2577 173.022 44.3465 173.231 44.4382C174.084 44.8118 174.978 45.2253 175.792 45.739L175.793 45.7394C178.541 47.476 181.198 49.5475 183.614 51.6059M170.785 43.3389L178.362 56.9704C178.185 57.0179 177.999 57.0695 177.806 57.1228C177.302 57.2626 176.756 57.414 176.218 57.5338C176.304 57.7405 176.493 58.0041 176.83 58.3193C176.857 58.345 176.886 58.3707 176.914 58.3964M170.785 43.3389C170.588 43.2387 170.375 43.1612 170.201 43.101C170.116 43.0717 170.044 43.0477 169.977 43.0252C169.882 42.9935 169.796 42.9649 169.697 42.929C169.543 42.8734 169.433 42.8263 169.355 42.7833C169.316 42.7621 169.296 42.7475 169.288 42.7415C168.946 42.3023 168.665 41.7854 168.38 41.1894C168.288 40.9954 168.19 40.7823 168.088 40.5606C167.895 40.1396 167.688 39.6872 167.473 39.2738M170.785 43.3389L131.047 4.09977C131.398 4.32152 131.763 4.63963 132.057 4.8966C132.114 4.94619 132.168 4.9935 132.219 5.03741C132.516 5.29243 132.737 5.46451 132.912 5.56464L136.247 5.76725L136.333 5.77249L136.417 5.79242C136.677 5.85412 136.94 5.91475 137.203 5.97569C139.082 6.40967 141.03 6.85965 142.685 7.82819C150.916 12.6421 156.276 17.5779 161.233 25.7276L161.233 25.7278C161.782 26.6305 162.192 27.5642 162.559 28.4788C162.689 28.8039 162.812 29.1201 162.934 29.4323C163.163 30.0238 163.388 30.6012 163.649 31.1984C164.833 33.9071 166.144 36.7122 167.473 39.2738M183.614 51.6059L182.966 52.3672L183.614 51.6059C183.614 51.6059 183.614 51.6059 183.614 51.6059ZM183.614 51.6059C184.164 52.0742 184.6 52.6346 184.97 53.1264C185.023 53.1955 185.073 53.2631 185.123 53.3292C185.446 53.76 185.722 54.129 186.037 54.4525L186.321 54.7437V55.1503V55.5766V56.3304L185.596 56.5379L183.348 57.1819L183.336 57.1855L183.323 57.1888C182.426 57.4206 181.593 57.507 180.843 57.5847L180.801 57.589C180.025 57.6696 179.339 57.7436 178.622 57.9362L178.621 57.9364C178.462 57.9789 178.289 58.0269 178.106 58.0777C177.741 58.1793 177.334 58.2923 176.914 58.3964M176.914 58.3964C177.255 58.7021 177.681 59.0098 178.159 59.3196C178.628 59.6241 179.12 59.9132 179.603 60.1975C179.652 60.2262 179.701 60.2549 179.75 60.2835C180.264 60.5862 180.784 60.895 181.193 61.1888L180.61 62.0015C180.21 61.7142 179.674 61.3993 179.095 61.0586C177.903 60.3578 176.525 59.5476 175.757 58.6434C176.139 58.5788 176.532 58.4913 176.914 58.3964ZM170.695 48.1469C171.046 48.295 171.487 48.4492 171.909 48.597C172.067 48.6523 172.223 48.7067 172.37 48.7596C172.957 48.9702 173.449 49.1676 173.779 49.3654C175.033 50.1221 176.251 50.9899 177.474 51.8605C177.791 52.0866 178.109 52.313 178.428 52.5376C178.628 52.6797 178.909 52.8518 179.185 53.0207C179.22 53.042 179.254 53.0633 179.289 53.0844C179.457 53.1874 179.629 53.2941 179.801 53.4036C177.082 53.4918 174.788 53.8971 172.73 54.7639L172.729 54.7642C172.626 54.8078 172.49 54.8474 172.274 54.9063L172.238 54.9163C172.052 54.967 171.805 55.0342 171.572 55.1251C171.064 55.3232 170.327 55.7542 170.2 56.7347L170.139 57.2062L170.466 57.5512C170.511 57.5985 170.565 57.6853 170.662 57.9378C170.673 57.9672 170.686 58.0007 170.699 58.0376C170.78 58.2549 170.905 58.5892 171.09 58.8881L171.09 58.8888C171.705 59.8829 172.773 61.2749 173.8 62.0494C173.927 62.1456 174.056 62.2437 174.187 62.3433C175.025 62.98 175.936 63.6721 176.88 64.2473C176.88 64.2475 176.88 64.2476 176.881 64.2478L177.401 63.3938L171.085 47.2258M170.695 48.1469L171.085 47.2258M170.695 48.1469C170.695 48.1469 170.696 48.1469 170.696 48.1469L171.085 47.2258M170.695 48.1469C170.429 48.0344 170.06 47.914 169.601 47.7728C169.499 47.7414 169.394 47.7092 169.285 47.676C168.924 47.5659 168.531 47.4462 168.153 47.3194C167.66 47.1544 167.148 46.9635 166.699 46.7377C166.271 46.5223 165.79 46.2227 165.468 45.7917M171.085 47.2258C170.69 47.059 170.149 46.8939 169.567 46.7167C168.268 46.3206 166.771 45.864 166.268 45.1925M165.468 45.7917L166.268 45.1925M165.468 45.7917C165.468 45.7917 165.468 45.7917 165.468 45.7917L166.268 45.1925M165.468 45.7917C164.084 43.9427 163.114 41.7364 162.199 39.6558C162.144 39.5299 162.088 39.4045 162.033 39.2796L162.033 39.2792C161.571 38.2284 161.048 37.1485 160.512 36.0422L160.445 35.9052C159.89 34.7579 159.323 33.5839 158.82 32.4227L158.819 32.4213C158.606 31.9255 158.434 31.4455 158.278 31.0083C158.245 30.9152 158.212 30.824 158.18 30.7351C157.993 30.2164 157.812 29.7477 157.567 29.2765C154.194 22.8117 149.27 17.4009 143.255 13.602L143.255 13.6019C141.274 12.3507 139.128 11.223 136.754 10.5008L166.268 45.1925M167.473 39.2738C167.473 39.274 167.473 39.2743 167.473 39.2746L166.586 39.735L167.473 39.2738ZM124.116 18.3551C123.954 17.9208 123.85 17.4949 123.762 17.1368C123.75 17.0897 123.739 17.0438 123.728 16.9993C123.628 16.5959 123.538 16.2721 123.395 15.9614L123.395 15.9614C123.003 15.1085 122.378 14.2692 121.723 13.3912C121.529 13.1307 121.332 12.8667 121.138 12.598L121.138 12.5977C120.973 12.369 120.771 12.12 120.529 11.8214C120.383 11.6414 120.223 11.4434 120.047 11.2209C119.605 10.6615 119.113 10.0031 118.694 9.27951C117.866 7.84999 117.224 5.98781 118.025 4.03239L124.116 18.3551ZM124.116 18.3551C124.309 18.8753 124.501 19.4229 124.697 19.9836C125.256 21.5849 125.854 23.2938 126.627 24.7821C127.137 25.7662 127.729 26.8591 128.421 27.8029L128.421 27.8031C128.577 28.0158 128.75 28.1831 128.885 28.3082C128.949 28.3669 128.999 28.4113 129.042 28.4497C129.108 28.5085 129.158 28.5532 129.218 28.6132C129.253 28.6481 129.282 28.6788 129.305 28.7071C129.04 29.2278 128.893 29.7866 128.784 30.2728C128.731 30.5092 128.688 30.7256 128.647 30.9288C128.564 31.3369 128.493 31.6915 128.38 32.0463L128.38 32.0464C126.635 37.5503 127.262 44.42 129.877 48.6143C130.256 49.2242 130.958 50.2945 131.936 51.078C132.943 51.8848 134.368 52.4718 136.027 51.7951C137.544 51.177 138.071 49.8831 138.32 48.689C138.425 48.183 138.491 47.6398 138.553 47.1333C138.563 47.0536 138.572 46.9749 138.582 46.8973C138.586 46.8618 138.591 46.8265 138.595 46.7913L139.253 48.1054L139.273 48.1466L139.297 48.1856C140.815 50.6292 143.451 53.1145 145.646 54.7721L145.646 54.7723C145.979 55.0238 146.265 55.3187 146.611 55.6752C146.77 55.8395 146.942 56.0168 147.138 56.209C147.619 56.6827 148.209 57.2052 148.958 57.5472L149.024 57.6484H149.199C149.249 57.6677 149.3 57.6861 149.351 57.7036L150.674 58.1552V56.7572V56.6484V55.6484H150.031C149.901 55.5222 149.774 55.4213 149.666 55.3389C149.591 55.2824 149.53 55.2372 149.477 55.1984C149.354 55.1078 149.279 55.0524 149.196 54.9709C148.382 54.173 147.491 53.1949 146.841 52.3105L146.84 52.309C144.928 49.7145 143.231 46.8622 141.676 43.8764C141.072 42.7162 140.535 41.4579 140.002 40.2107C139.893 39.9553 139.784 39.7003 139.674 39.4466L139.674 39.4452C139.646 39.3802 139.616 39.2846 139.576 39.1296C139.567 39.0945 139.557 39.0523 139.545 39.0058C139.515 38.8848 139.478 38.7348 139.441 38.605C139.343 38.2687 139.13 37.6221 138.505 37.2636L137.683 36.7921L137.168 37.5877C136.939 37.9418 136.68 38.2579 136.38 38.6241C136.273 38.7545 136.161 38.8912 136.043 39.0382C135.62 39.5669 135.161 40.188 134.837 40.9524L134.837 40.9532C134.361 42.081 134.104 43.3024 133.925 44.5284C133.819 45.2564 133.734 46.0392 133.649 46.8154C133.644 46.8634 133.639 46.9114 133.634 46.9593C133.575 46.8864 133.518 46.8066 133.461 46.7197C133.19 46.3026 132.987 45.8155 132.751 45.2471C132.706 45.1388 132.66 45.0276 132.612 44.9133C131.306 41.8115 131.051 36.6962 132.214 33.0845L132.214 33.0839C132.271 32.9094 132.37 32.651 132.502 32.3067C132.532 32.2286 132.564 32.146 132.597 32.059C132.769 31.6097 132.969 31.0762 133.141 30.5388C133.312 30.0081 133.468 29.4349 133.537 28.9103C133.594 28.4859 133.629 27.8683 133.358 27.3412C133.134 26.7018 132.719 26.2334 132.383 25.8925C132.245 25.7521 132.126 25.6376 132.022 25.5373C131.815 25.3375 131.667 25.1938 131.534 25.0127L131.532 25.0097C130.946 24.2145 130.344 23.1445 129.93 22.2025L129.929 22.201C129.398 21.0007 129.002 19.721 128.583 18.3684C128.571 18.3301 128.559 18.2917 128.547 18.2533C128.121 16.879 127.668 15.4338 127.034 14.0533L127.034 14.0523C126.489 12.8708 125.627 11.6859 124.908 10.6979C124.795 10.543 124.686 10.393 124.582 10.2487C124.582 10.2485 124.582 10.2483 124.582 10.2481L123.77 10.832M124.116 18.3551L122.108 6.77334L121.2 7.19175M123.77 10.832C123.483 10.4312 123.184 10.0648 122.888 9.70187C122.271 8.94431 121.666 8.20158 121.2 7.19175M123.77 10.832C123.88 10.9846 123.993 11.1401 124.108 11.298C124.832 12.2941 125.626 13.3874 126.125 14.4708L123.77 10.832ZM121.2 7.19175C120.956 6.66107 120.623 5.80988 120.986 5.26428M121.2 7.19175L122.108 6.77304C121.994 6.52418 121.891 6.2669 121.847 6.04043C121.816 5.88772 121.826 5.81883 121.83 5.80085L121.898 5.69834L121.937 5.57355C121.939 5.57267 121.942 5.57178 121.945 5.57087L122.106 5.51732L122.187 5.45507C122.206 5.45238 122.237 5.44952 122.281 5.44896C122.431 5.44705 122.641 5.47332 122.898 5.53114C123.407 5.64593 123.94 5.84765 124.242 5.97312C125.933 6.67629 127.3 7.32609 128.678 8.23827C128.867 8.36412 129.038 8.51507 129.263 8.7131C129.376 8.8131 129.503 8.92511 129.653 9.05195C130.033 9.37392 130.558 9.78286 131.198 9.97011L131.335 10.0104H131.479H132.333C133.092 10.171 133.876 10.2065 134.559 10.2374C134.618 10.2401 134.676 10.2427 134.734 10.2454C135.533 10.2827 136.187 10.3284 136.754 10.5008L120.986 5.26428M120.986 5.26428C121.1 4.89608 121.266 4.74254 121.63 4.62179L120.986 5.26428ZM131.262 32.778C130.028 36.6105 130.289 41.9726 131.69 45.3013C131.733 45.4031 131.776 45.5062 131.819 45.61C132.224 46.5882 132.653 47.6254 133.495 48.1813L131.262 32.778ZM131.262 32.778C131.328 32.5743 131.441 32.2809 131.573 31.9354C132.088 30.5966 132.903 28.4741 132.439 27.7454L131.262 32.778ZM134.26 48.5122C134.064 48.465 133.885 48.3975 133.72 48.3129M134.26 48.5122L134.475 48.4064M134.26 48.5122L134.291 48.3836M134.26 48.5122L134.191 48.3712L133.72 48.3129M133.72 48.3129L148.981 55.1906C148.838 55.069 148.692 54.9332 148.541 54.784C148.423 54.6681 148.295 54.5364 148.16 54.3968C147.77 53.9947 147.315 53.5262 146.851 53.1759C146.661 53.0323 146.468 52.8826 146.273 52.7276C146.273 52.7275 146.273 52.7274 146.273 52.7272C145.975 52.4899 145.673 52.2402 145.372 51.9803C143.69 49.5872 142.18 47.0089 140.789 44.3383C140.221 43.2467 139.709 42.0695 139.219 40.9248V40.6973L139.157 40.7799C139.131 40.7174 139.104 40.6551 139.078 40.5928C138.97 40.3401 138.863 40.0895 138.756 39.8424C138.676 39.6562 138.622 39.4384 138.568 39.2196C138.559 39.1843 138.55 39.149 138.542 39.1138C138.648 38.9701 138.751 38.8233 138.847 38.6744L138.07 38.1713C138.05 38.1569 138.029 38.1434 138.008 38.1311C137.745 38.5364 137.437 38.9126 137.126 39.2922C136.613 39.9177 136.092 40.5525 135.758 41.342C135.073 42.9657 134.866 44.8752 134.647 46.8884C134.593 47.3889 134.538 47.8958 134.475 48.4064M133.72 48.3129L134.291 48.3836M134.475 48.4064L134.291 48.3836M134.475 48.4064L134.348 48.1486L134.291 48.3836M124.693 1.24793C127.17 1.815 129.681 3.23751 131.046 4.0997L124.693 1.24793ZM124.693 1.24793C123.453 0.964126 122.121 0.870175 120.913 1.25711M124.693 1.24793L120.913 1.25711M120.913 1.25711C119.654 1.66053 118.63 2.55649 118.025 4.03231L120.913 1.25711ZM181.491 53.3876C181.888 53.7277 182.178 54.0765 182.217 54.402C181.833 54.3914 181.458 54.3857 181.091 54.3849L181.491 53.3876ZM173.118 55.6854C172.936 55.7622 172.726 55.8195 172.513 55.8776C171.907 56.0431 171.276 56.2156 171.192 56.8631C171.415 57.0981 171.528 57.3997 171.644 57.7083C171.728 57.9302 171.813 58.1557 171.94 58.3627C172.528 59.3123 173.519 60.5853 174.403 61.2517C174.534 61.3506 174.665 61.4505 174.798 61.5509L173.118 55.6854ZM149.629 55.6484C149.412 55.5309 149.2 55.3775 148.981 55.1909L149.629 55.6484ZM149.711 56.6484L149.751 56.5299L149.674 56.7572L149.711 56.6484ZM162.732 31.5988C162.464 30.984 162.226 30.3719 161.991 29.7678C161.517 28.5482 161.055 27.3607 160.379 26.2473L162.732 31.5988ZM135.063 12.9L134.78 12.6258L134.387 12.6183C133.491 12.6013 132.848 12.7201 132.227 12.8558L131.44 13.0275V13.8328V13.9386V14.9386H131.979C132.157 15.1961 132.346 15.4171 132.516 15.6084C132.589 15.6903 132.657 15.7649 132.72 15.8347C132.903 16.0368 133.05 16.1984 133.181 16.3767L134.215 18.5444L134.824 19.8219L135.824 18.8211L135.875 18.7709C136.848 18.0439 137.19 16.9383 137.186 15.6503L137.185 15.2519L136.91 14.9634L136.91 14.9631C136.905 14.9574 136.885 14.9365 136.821 14.7905C136.815 14.7761 136.807 14.7593 136.799 14.7405C136.741 14.6028 136.636 14.3576 136.476 14.1246C136.213 13.7397 135.855 13.4779 135.616 13.3091C135.547 13.2605 135.486 13.2185 135.432 13.1811C135.258 13.0603 135.155 12.9883 135.063 12.9Z" fill="url(#paint2_linear_145_364)" stroke="#222831" stroke-width="2" stroke-linecap="round"/>
<defs>
<linearGradient id="paint0_linear_145_364" x1="2.83337" y1="98.2007" x2="79.8334" y2="60.2007" gradientUnits="userSpaceOnUse">
<stop stop-color="#00618A"/>
<stop offset="1" stop-color="#127FAD"/>
</linearGradient>
<linearGradient id="paint1_linear_145_364" x1="83.8334" y1="93.2008" x2="176.833" y2="61.2008" gradientUnits="userSpaceOnUse">
<stop stop-color="#E48E00"/>
<stop offset="1" stop-color="#F7BC5C"/>
</linearGradient>
<linearGradient id="paint2_linear_145_364" x1="118.659" y1="70.0717" x2="199.911" y2="50.1555" gradientUnits="userSpaceOnUse">
<stop stop-color="#00618A"/>
<stop offset="1" stop-color="#127FAD"/>
</linearGradient>
</defs>
</svg>
