<svg width="90" height="100" viewBox="0 0 90 100" fill="none" xmlns="http://www.w3.org/2000/svg">
<path d="M49.6494 2.07839L49.6494 2.07836L49.6422 2.07424C47.1263 0.641235 43.8767 0.64316 41.3473 2.07257L41.3472 2.07255L41.3411 2.07609L5.95767 22.4044L5.95718 22.4047C3.41067 23.8696 1.56482 26.6418 1.56482 29.6808V70.2835C1.56482 73.3325 3.46244 76.1002 5.9972 77.5664L6.00402 77.5703L15.3524 82.88L15.378 82.8945L15.4045 82.9075C17.6753 84.026 19.2649 84.6121 20.5775 84.9111C21.8948 85.2112 22.8918 85.2112 23.9055 85.2112H23.9268C27.439 85.2112 30.3273 84.144 32.3315 82.026C34.3281 79.916 35.3216 76.8956 35.3216 73.2329V33.1479C35.3216 32.7216 35.217 32.2121 34.9962 31.778C34.7952 31.3828 34.3221 30.7394 33.4713 30.7394H29.0071C28.659 30.7394 28.3224 30.8571 28.0774 30.9656C27.8091 31.0846 27.5371 31.2442 27.2919 31.4223C27.0499 31.5982 26.802 31.8153 26.6037 32.0618C26.4286 32.2796 26.1763 32.6619 26.1763 33.1471V73.2321C26.1763 74.5001 25.603 75.6842 24.6013 76.2982C23.6357 76.89 22.0217 77.0994 19.6231 75.9074L9.98956 70.3547L9.97836 70.3482L9.967 70.3421C9.96286 70.3398 9.95587 70.3352 9.94767 70.3274C9.93946 70.3196 9.93205 70.3105 9.92622 70.3011C9.91916 70.2898 9.91684 70.2823 9.91618 70.2797V29.805C9.91743 29.8035 9.91872 29.8021 9.92005 29.8006C9.95147 29.7659 9.99461 29.7259 10.047 29.6849C10.0986 29.6446 10.1508 29.6099 10.1956 29.5839C10.1959 29.5837 10.1962 29.5836 10.1965 29.5834L45.4547 9.29628C45.4569 9.29547 45.4619 9.29368 45.4702 9.29168C45.4871 9.28762 45.5101 9.28447 45.5364 9.28447C45.5628 9.28447 45.5856 9.28762 45.6022 9.29162C45.6096 9.29341 45.6144 9.29501 45.6167 9.29585L80.1714 29.4191C80.1669 29.4931 80.1621 29.587 80.1621 29.6808V70.2835C80.1621 70.378 80.1677 70.4695 80.1737 70.5451L45.4789 90.6729C45.4755 90.6718 45.4711 90.6701 45.4657 90.6676L36.5117 85.323L36.5117 85.323L36.5013 85.3169C36.0659 85.0641 35.3466 84.856 34.6589 85.2408L34.6542 85.2434C32.2095 86.629 31.8045 86.7921 29.5187 87.5845L29.5172 87.585C29.375 87.6346 29.1337 87.7199 28.9112 87.8471C28.7214 87.9557 28.3158 88.2204 28.1727 88.7332C28.007 89.3265 28.2948 89.8148 28.5598 90.1071C28.8235 90.3979 29.2055 90.6648 29.6724 90.9273L41.4111 97.8715L41.4194 97.8763C42.698 98.6162 44.1492 99 45.6096 99C47.0864 99 48.5362 98.6167 49.8157 97.8763L49.8184 97.8747L84.6593 77.5648C84.6594 77.5647 84.6595 77.5647 84.6596 77.5647C87.3184 76.0156 88.5143 73.1809 88.5143 70.2835V29.6808C88.5143 26.7846 87.319 23.9449 84.6574 22.4058L49.6494 2.07839ZM45.4254 56.5058L45.4255 56.5058L45.4237 56.4946C45.354 56.0568 45.1466 55.6155 44.8546 55.271C44.5704 54.9356 44.0837 54.557 43.4263 54.557H38.8763C38.1741 54.557 37.6574 54.975 37.3622 55.3623C37.0623 55.7558 36.8609 56.2755 36.8609 56.8003C36.8609 59.9398 37.7178 63.5249 40.7162 66.3103C43.7012 69.0833 48.6443 70.9095 56.4807 70.9095C62.1607 70.9095 66.7716 69.8096 69.9921 67.6121C73.2629 65.3803 75.0168 62.0685 75.0168 57.9142C75.0168 55.904 74.6774 54.1886 73.937 52.7333C73.1919 51.269 72.0741 50.1335 70.624 49.2379C67.784 47.4838 63.5935 46.6117 58.2045 45.8985L58.2044 45.8984C52.6999 45.1709 49.8376 44.6396 48.3419 44.018C47.6241 43.7197 47.3579 43.4531 47.2356 43.2524C47.1072 43.0418 47.0375 42.7445 47.0375 42.1565C47.0375 41.2648 47.2253 40.3965 48.1319 39.6927C49.1139 38.9305 51.0969 38.2318 55.0675 38.2318C58.6556 38.2318 60.8958 38.6262 62.3575 39.48C63.737 40.2857 64.5662 41.591 65.0796 43.8672C65.2773 44.8058 66.1199 45.4422 67.0414 45.4422H71.6097C72.1614 45.4422 72.6865 45.219 73.0701 44.8278L73.0884 44.8091L73.1058 44.7894C73.4584 44.3897 73.6689 43.8552 73.6184 43.2665C73.2456 38.8456 71.5666 35.4681 68.3806 33.2352C65.2457 31.0381 60.7918 30.0503 55.0667 30.0503C49.9306 30.0503 45.6994 31.1321 42.7234 33.2388C39.7066 35.3744 38.0566 38.5135 38.0566 42.3835C38.0566 44.4384 38.4544 46.1876 39.2593 47.6614C40.0662 49.1388 41.2488 50.2781 42.7217 51.1611C45.6213 52.8993 49.716 53.6811 54.5364 54.1577L54.5373 54.1578C60.3024 54.723 63.2299 55.4167 64.706 56.1666C65.4123 56.5254 65.7034 56.857 65.8443 57.1208C65.9918 57.3969 66.0462 57.7285 66.0462 58.2397C66.0462 59.0882 65.8768 59.7484 65.5719 60.2743C65.2689 60.7968 64.7935 61.2536 64.0722 61.6366C62.5841 62.4265 60.1517 62.8495 56.4799 62.8495C51.8692 62.8495 49.292 62.2035 47.7929 61.1647C46.3666 60.1765 45.7512 58.7121 45.4254 56.5058Z" fill="url(#paint0_linear_145_355)" stroke="#222831" stroke-width="2" stroke-linecap="round"/>
<defs>
<linearGradient id="paint0_linear_145_355" x1="3.05551" y1="98" x2="87.0555" y2="2" gradientUnits="userSpaceOnUse">
<stop stop-color="#83CD29"/>
<stop offset="1" stop-color="#B1F85B"/>
</linearGradient>
</defs>
</svg>
