<svg width="90" height="100" viewBox="0 0 90 100" fill="none" xmlns="http://www.w3.org/2000/svg">
<mask id="path-1-outside-1_145_331" maskUnits="userSpaceOnUse" x="0.162476" y="0" width="90" height="100" fill="black">
<rect fill="white" x="0.162476" width="90" height="100"/>
<path d="M40.5579 42.5019C39.0896 43.3497 37.9056 44.6138 37.1557 46.1344C36.4058 47.6551 36.1237 49.3639 36.345 51.0449C36.5663 52.7259 37.2812 54.3035 38.3991 55.5782C39.517 56.8529 40.9879 57.7675 42.6256 58.2063C44.2633 58.6451 45.9944 58.5884 47.5999 58.0433C49.2054 57.4983 50.6132 56.4894 51.6453 55.1442C52.6774 53.7991 53.2874 52.1781 53.3982 50.4862C53.509 48.7943 53.1157 47.1076 52.2678 45.6393C51.1309 43.6706 49.2586 42.234 47.0626 41.6457C44.8666 41.0573 42.5268 41.3653 40.5579 42.5019ZM78.9804 51.8028C78.4176 51.1596 77.8237 50.5147 77.1988 49.868C77.6353 49.4092 78.0577 48.9508 78.466 48.4929C86.174 39.8324 89.4271 31.1471 86.4128 25.9255C83.5224 20.9191 74.9243 19.4272 64.1604 21.5202C63.1001 21.7276 62.0458 21.9616 60.9972 22.2221C60.7965 21.5301 60.583 20.8421 60.3567 20.1581C56.7051 9.154 50.8064 1.99621 44.7774 2C38.9963 2.00264 33.4088 8.70601 29.8444 19.076C29.4937 20.099 29.1693 21.1305 28.8711 22.1706C28.1701 21.9986 27.4661 21.8397 26.7591 21.6939C15.4024 19.3622 6.25517 20.8979 3.24668 26.1224C0.361888 31.1324 3.37883 39.3215 10.5835 47.5884C11.298 48.4064 12.0328 49.206 12.7878 49.9873C11.8977 50.9041 11.055 51.8204 10.2694 52.7315C3.23938 60.8819 0.394961 68.937 3.2751 73.9254C6.2496 79.0781 15.2681 80.7623 26.245 78.6023C27.1345 78.426 28.0192 78.2276 28.899 78.0071C29.2212 79.1321 29.5747 80.2473 29.9595 81.3527C33.5082 91.5146 39.0644 98.0021 44.8251 98C50.7744 97.9965 56.7383 91.0262 60.3518 80.4381C60.6371 79.6013 60.9073 78.7324 61.1633 77.8377C62.2998 78.1204 63.4435 78.3713 64.5946 78.5903C75.1707 80.5913 83.5666 79.0175 86.4415 74.0255C89.4102 68.869 86.3492 60.2206 78.9802 51.8028H78.9804ZM6.80054 28.1688C8.65266 24.9528 16.1281 23.6981 25.9337 25.7112C26.5604 25.84 27.1978 25.984 27.8459 26.1432C26.8886 30.378 26.2131 34.6717 25.8238 38.9959C22.2858 41.485 18.9125 44.2004 15.7252 47.1252C15.023 46.399 14.3395 45.6551 13.6747 44.8937L13.675 44.894C7.50192 37.8106 5.06203 31.1878 6.80054 28.1688ZM25.4565 55.6635C23.0058 53.8078 20.7282 51.9068 18.6611 49.9947C20.7268 48.0946 23.0058 46.1999 25.4515 44.3492C25.3636 46.2345 25.32 48.1212 25.3208 50.0094C25.3221 51.8948 25.3673 53.7795 25.4565 55.6635ZM25.4535 74.5784C21.2932 75.5034 16.9981 75.655 12.783 75.0255C11.6274 74.9355 10.5026 74.6095 9.47808 74.0676C8.45352 73.5258 7.55096 72.7796 6.82617 71.8752C5.07864 68.848 7.36262 62.3808 13.3749 55.4101C14.1308 54.5365 14.9114 53.6857 15.7169 52.8578C18.9046 55.7979 22.2834 58.5239 25.831 61.0181C26.2256 65.3976 26.909 69.7462 27.8768 74.0356C27.0737 74.2365 26.2659 74.4174 25.4535 74.5784ZM59.5388 35.9896C57.929 34.9752 56.2992 33.9933 54.6495 33.0441C53.0262 32.1097 51.3833 31.2103 49.7209 30.3461C52.5673 29.1493 55.3653 28.1272 58.0664 27.2942C58.7032 30.1661 59.1946 33.0682 59.5388 35.9896ZM33.7227 20.409C36.7766 11.5235 41.2953 6.10245 44.7796 6.10097C48.4904 6.09919 53.3117 11.9486 56.4644 21.4495C56.6692 22.0689 56.8628 22.6917 57.0452 23.3181C52.9033 24.6027 48.851 26.16 44.9148 27.9798C40.995 26.1386 36.9555 24.564 32.8237 23.2665C33.0999 22.3068 33.3996 21.3543 33.7227 20.409ZM31.801 27.2431C34.6185 28.1301 37.3895 29.1586 40.1034 30.3247C36.7407 32.0601 33.4649 33.9503 30.2761 35.9954C30.6613 32.933 31.174 29.9989 31.801 27.2431ZM30.2831 64.0143C31.8733 65.0323 33.4868 66.0127 35.1235 66.9554C36.7931 67.9166 38.4849 68.8375 40.1989 69.7181C37.4642 70.9245 34.6694 71.9898 31.8256 72.9097C31.1913 70.1156 30.673 67.13 30.2831 64.0143ZM56.4703 79.1127C55.1933 83.1789 53.1788 86.9753 50.5275 90.3122L50.5272 90.3125C49.872 91.2684 49.0278 92.0798 48.0466 92.6965C47.0655 93.3132 45.9683 93.7222 44.8229 93.8981C41.3275 93.9001 36.8661 88.6901 33.8313 80C33.4739 78.9726 33.1451 77.9358 32.8448 76.8896C36.9964 75.5503 41.0524 73.9311 44.9849 72.0431C48.9534 73.8746 53.038 75.4436 57.2122 76.7399C56.9842 77.5366 56.7369 78.3275 56.4703 79.1127ZM58.2091 72.7565C55.4769 71.9117 52.6383 70.8724 49.7508 69.658C51.3786 68.8014 53.0181 67.8967 54.6695 66.944C56.364 65.9654 58.0154 64.9624 59.6235 63.9349C59.3032 66.8977 58.8311 69.8421 58.2091 72.7566V72.7565ZM60.3512 49.9916C60.3548 52.9067 60.2638 55.8194 60.0782 58.7297C57.7134 60.3302 55.2167 61.8929 52.619 63.3926C50.0321 64.8862 47.469 66.2587 44.9547 67.5009C42.3089 66.2329 39.7141 64.8665 37.1703 63.4017C34.6408 61.9457 32.1693 60.3953 29.7558 58.7505C29.5352 55.8411 29.4241 52.9263 29.4224 50.0063L29.423 50.0072C29.421 47.0892 29.5297 44.1743 29.7491 41.2624C32.1134 39.6478 34.5919 38.0863 37.1545 36.6068C39.7288 35.1203 42.324 33.7536 44.9049 32.515C47.5182 33.785 50.0843 35.146 52.6033 36.5981C55.131 38.0509 57.6094 39.5847 60.0384 41.1997C60.247 44.1259 60.3514 47.0565 60.3516 49.9916H60.3512ZM64.9435 25.5461C74.1659 23.7523 81.1195 24.959 82.8615 27.976C84.7171 31.1902 82.0576 38.2888 75.4031 45.7665L75.4028 45.7668C75.0351 46.1793 74.6537 46.5935 74.2584 47.0095C71.016 44.0785 67.5777 41.3717 63.9675 38.9078C63.6031 34.6309 62.9529 30.3831 62.0213 26.193C63.0143 25.9487 63.9884 25.7331 64.9435 25.5461ZM64.3201 44.1926C66.7553 45.9706 69.0966 47.8737 71.3346 49.8943C69.1065 51.948 66.7726 53.884 64.3424 55.6941C64.4168 53.7936 64.4534 51.8922 64.4522 49.9897C64.4513 48.0569 64.4073 46.1246 64.3201 44.1926ZM82.8869 71.9786C81.1423 75.0082 74.4011 76.2715 65.3563 74.5602C64.3198 74.3646 63.2562 74.1316 62.1656 73.8615C63.0748 69.6175 63.6962 65.3169 64.0254 60.9891C67.6296 58.4822 71.057 55.7303 74.2833 52.7529C74.8479 53.3394 75.3849 53.9232 75.8944 54.5043V54.5039C78.7795 57.6409 81.0625 61.2823 82.6291 65.2459C83.1301 66.2909 83.4115 67.4275 83.4558 68.5855C83.5002 69.7436 83.3066 70.8984 82.8869 71.9786Z"/>
</mask>
<path d="M40.5579 42.5019C39.0896 43.3497 37.9056 44.6138 37.1557 46.1344C36.4058 47.6551 36.1237 49.3639 36.345 51.0449C36.5663 52.7259 37.2812 54.3035 38.3991 55.5782C39.517 56.8529 40.9879 57.7675 42.6256 58.2063C44.2633 58.6451 45.9944 58.5884 47.5999 58.0433C49.2054 57.4983 50.6132 56.4894 51.6453 55.1442C52.6774 53.7991 53.2874 52.1781 53.3982 50.4862C53.509 48.7943 53.1157 47.1076 52.2678 45.6393C51.1309 43.6706 49.2586 42.234 47.0626 41.6457C44.8666 41.0573 42.5268 41.3653 40.5579 42.5019ZM78.9804 51.8028C78.4176 51.1596 77.8237 50.5147 77.1988 49.868C77.6353 49.4092 78.0577 48.9508 78.466 48.4929C86.174 39.8324 89.4271 31.1471 86.4128 25.9255C83.5224 20.9191 74.9243 19.4272 64.1604 21.5202C63.1001 21.7276 62.0458 21.9616 60.9972 22.2221C60.7965 21.5301 60.583 20.8421 60.3567 20.1581C56.7051 9.154 50.8064 1.99621 44.7774 2C38.9963 2.00264 33.4088 8.70601 29.8444 19.076C29.4937 20.099 29.1693 21.1305 28.8711 22.1706C28.1701 21.9986 27.4661 21.8397 26.7591 21.6939C15.4024 19.3622 6.25517 20.8979 3.24668 26.1224C0.361888 31.1324 3.37883 39.3215 10.5835 47.5884C11.298 48.4064 12.0328 49.206 12.7878 49.9873C11.8977 50.9041 11.055 51.8204 10.2694 52.7315C3.23938 60.8819 0.394961 68.937 3.2751 73.9254C6.2496 79.0781 15.2681 80.7623 26.245 78.6023C27.1345 78.426 28.0192 78.2276 28.899 78.0071C29.2212 79.1321 29.5747 80.2473 29.9595 81.3527C33.5082 91.5146 39.0644 98.0021 44.8251 98C50.7744 97.9965 56.7383 91.0262 60.3518 80.4381C60.6371 79.6013 60.9073 78.7324 61.1633 77.8377C62.2998 78.1204 63.4435 78.3713 64.5946 78.5903C75.1707 80.5913 83.5666 79.0175 86.4415 74.0255C89.4102 68.869 86.3492 60.2206 78.9802 51.8028H78.9804ZM6.80054 28.1688C8.65266 24.9528 16.1281 23.6981 25.9337 25.7112C26.5604 25.84 27.1978 25.984 27.8459 26.1432C26.8886 30.378 26.2131 34.6717 25.8238 38.9959C22.2858 41.485 18.9125 44.2004 15.7252 47.1252C15.023 46.399 14.3395 45.6551 13.6747 44.8937L13.675 44.894C7.50192 37.8106 5.06203 31.1878 6.80054 28.1688ZM25.4565 55.6635C23.0058 53.8078 20.7282 51.9068 18.6611 49.9947C20.7268 48.0946 23.0058 46.1999 25.4515 44.3492C25.3636 46.2345 25.32 48.1212 25.3208 50.0094C25.3221 51.8948 25.3673 53.7795 25.4565 55.6635ZM25.4535 74.5784C21.2932 75.5034 16.9981 75.655 12.783 75.0255C11.6274 74.9355 10.5026 74.6095 9.47808 74.0676C8.45352 73.5258 7.55096 72.7796 6.82617 71.8752C5.07864 68.848 7.36262 62.3808 13.3749 55.4101C14.1308 54.5365 14.9114 53.6857 15.7169 52.8578C18.9046 55.7979 22.2834 58.5239 25.831 61.0181C26.2256 65.3976 26.909 69.7462 27.8768 74.0356C27.0737 74.2365 26.2659 74.4174 25.4535 74.5784ZM59.5388 35.9896C57.929 34.9752 56.2992 33.9933 54.6495 33.0441C53.0262 32.1097 51.3833 31.2103 49.7209 30.3461C52.5673 29.1493 55.3653 28.1272 58.0664 27.2942C58.7032 30.1661 59.1946 33.0682 59.5388 35.9896ZM33.7227 20.409C36.7766 11.5235 41.2953 6.10245 44.7796 6.10097C48.4904 6.09919 53.3117 11.9486 56.4644 21.4495C56.6692 22.0689 56.8628 22.6917 57.0452 23.3181C52.9033 24.6027 48.851 26.16 44.9148 27.9798C40.995 26.1386 36.9555 24.564 32.8237 23.2665C33.0999 22.3068 33.3996 21.3543 33.7227 20.409ZM31.801 27.2431C34.6185 28.1301 37.3895 29.1586 40.1034 30.3247C36.7407 32.0601 33.4649 33.9503 30.2761 35.9954C30.6613 32.933 31.174 29.9989 31.801 27.2431ZM30.2831 64.0143C31.8733 65.0323 33.4868 66.0127 35.1235 66.9554C36.7931 67.9166 38.4849 68.8375 40.1989 69.7181C37.4642 70.9245 34.6694 71.9898 31.8256 72.9097C31.1913 70.1156 30.673 67.13 30.2831 64.0143ZM56.4703 79.1127C55.1933 83.1789 53.1788 86.9753 50.5275 90.3122L50.5272 90.3125C49.872 91.2684 49.0278 92.0798 48.0466 92.6965C47.0655 93.3132 45.9683 93.7222 44.8229 93.8981C41.3275 93.9001 36.8661 88.6901 33.8313 80C33.4739 78.9726 33.1451 77.9358 32.8448 76.8896C36.9964 75.5503 41.0524 73.9311 44.9849 72.0431C48.9534 73.8746 53.038 75.4436 57.2122 76.7399C56.9842 77.5366 56.7369 78.3275 56.4703 79.1127ZM58.2091 72.7565C55.4769 71.9117 52.6383 70.8724 49.7508 69.658C51.3786 68.8014 53.0181 67.8967 54.6695 66.944C56.364 65.9654 58.0154 64.9624 59.6235 63.9349C59.3032 66.8977 58.8311 69.8421 58.2091 72.7566V72.7565ZM60.3512 49.9916C60.3548 52.9067 60.2638 55.8194 60.0782 58.7297C57.7134 60.3302 55.2167 61.8929 52.619 63.3926C50.0321 64.8862 47.469 66.2587 44.9547 67.5009C42.3089 66.2329 39.7141 64.8665 37.1703 63.4017C34.6408 61.9457 32.1693 60.3953 29.7558 58.7505C29.5352 55.8411 29.4241 52.9263 29.4224 50.0063L29.423 50.0072C29.421 47.0892 29.5297 44.1743 29.7491 41.2624C32.1134 39.6478 34.5919 38.0863 37.1545 36.6068C39.7288 35.1203 42.324 33.7536 44.9049 32.515C47.5182 33.785 50.0843 35.146 52.6033 36.5981C55.131 38.0509 57.6094 39.5847 60.0384 41.1997C60.247 44.1259 60.3514 47.0565 60.3516 49.9916H60.3512ZM64.9435 25.5461C74.1659 23.7523 81.1195 24.959 82.8615 27.976C84.7171 31.1902 82.0576 38.2888 75.4031 45.7665L75.4028 45.7668C75.0351 46.1793 74.6537 46.5935 74.2584 47.0095C71.016 44.0785 67.5777 41.3717 63.9675 38.9078C63.6031 34.6309 62.9529 30.3831 62.0213 26.193C63.0143 25.9487 63.9884 25.7331 64.9435 25.5461ZM64.3201 44.1926C66.7553 45.9706 69.0966 47.8737 71.3346 49.8943C69.1065 51.948 66.7726 53.884 64.3424 55.6941C64.4168 53.7936 64.4534 51.8922 64.4522 49.9897C64.4513 48.0569 64.4073 46.1246 64.3201 44.1926ZM82.8869 71.9786C81.1423 75.0082 74.4011 76.2715 65.3563 74.5602C64.3198 74.3646 63.2562 74.1316 62.1656 73.8615C63.0748 69.6175 63.6962 65.3169 64.0254 60.9891C67.6296 58.4822 71.057 55.7303 74.2833 52.7529C74.8479 53.3394 75.3849 53.9232 75.8944 54.5043V54.5039C78.7795 57.6409 81.0625 61.2823 82.6291 65.2459C83.1301 66.2909 83.4115 67.4275 83.4558 68.5855C83.5002 69.7436 83.3066 70.8984 82.8869 71.9786Z" fill="url(#paint0_linear_145_331)"/>
<path d="M40.5579 42.5019C39.0896 43.3497 37.9056 44.6138 37.1557 46.1344C36.4058 47.6551 36.1237 49.3639 36.345 51.0449C36.5663 52.7259 37.2812 54.3035 38.3991 55.5782C39.517 56.8529 40.9879 57.7675 42.6256 58.2063C44.2633 58.6451 45.9944 58.5884 47.5999 58.0433C49.2054 57.4983 50.6132 56.4894 51.6453 55.1442C52.6774 53.7991 53.2874 52.1781 53.3982 50.4862C53.509 48.7943 53.1157 47.1076 52.2678 45.6393C51.1309 43.6706 49.2586 42.234 47.0626 41.6457C44.8666 41.0573 42.5268 41.3653 40.5579 42.5019ZM78.9804 51.8028C78.4176 51.1596 77.8237 50.5147 77.1988 49.868C77.6353 49.4092 78.0577 48.9508 78.466 48.4929C86.174 39.8324 89.4271 31.1471 86.4128 25.9255C83.5224 20.9191 74.9243 19.4272 64.1604 21.5202C63.1001 21.7276 62.0458 21.9616 60.9972 22.2221C60.7965 21.5301 60.583 20.8421 60.3567 20.1581C56.7051 9.154 50.8064 1.99621 44.7774 2C38.9963 2.00264 33.4088 8.70601 29.8444 19.076C29.4937 20.099 29.1693 21.1305 28.8711 22.1706C28.1701 21.9986 27.4661 21.8397 26.7591 21.6939C15.4024 19.3622 6.25517 20.8979 3.24668 26.1224C0.361888 31.1324 3.37883 39.3215 10.5835 47.5884C11.298 48.4064 12.0328 49.206 12.7878 49.9873C11.8977 50.9041 11.055 51.8204 10.2694 52.7315C3.23938 60.8819 0.394961 68.937 3.2751 73.9254C6.2496 79.0781 15.2681 80.7623 26.245 78.6023C27.1345 78.426 28.0192 78.2276 28.899 78.0071C29.2212 79.1321 29.5747 80.2473 29.9595 81.3527C33.5082 91.5146 39.0644 98.0021 44.8251 98C50.7744 97.9965 56.7383 91.0262 60.3518 80.4381C60.6371 79.6013 60.9073 78.7324 61.1633 77.8377C62.2998 78.1204 63.4435 78.3713 64.5946 78.5903C75.1707 80.5913 83.5666 79.0175 86.4415 74.0255C89.4102 68.869 86.3492 60.2206 78.9802 51.8028H78.9804ZM6.80054 28.1688C8.65266 24.9528 16.1281 23.6981 25.9337 25.7112C26.5604 25.84 27.1978 25.984 27.8459 26.1432C26.8886 30.378 26.2131 34.6717 25.8238 38.9959C22.2858 41.485 18.9125 44.2004 15.7252 47.1252C15.023 46.399 14.3395 45.6551 13.6747 44.8937L13.675 44.894C7.50192 37.8106 5.06203 31.1878 6.80054 28.1688ZM25.4565 55.6635C23.0058 53.8078 20.7282 51.9068 18.6611 49.9947C20.7268 48.0946 23.0058 46.1999 25.4515 44.3492C25.3636 46.2345 25.32 48.1212 25.3208 50.0094C25.3221 51.8948 25.3673 53.7795 25.4565 55.6635ZM25.4535 74.5784C21.2932 75.5034 16.9981 75.655 12.783 75.0255C11.6274 74.9355 10.5026 74.6095 9.47808 74.0676C8.45352 73.5258 7.55096 72.7796 6.82617 71.8752C5.07864 68.848 7.36262 62.3808 13.3749 55.4101C14.1308 54.5365 14.9114 53.6857 15.7169 52.8578C18.9046 55.7979 22.2834 58.5239 25.831 61.0181C26.2256 65.3976 26.909 69.7462 27.8768 74.0356C27.0737 74.2365 26.2659 74.4174 25.4535 74.5784ZM59.5388 35.9896C57.929 34.9752 56.2992 33.9933 54.6495 33.0441C53.0262 32.1097 51.3833 31.2103 49.7209 30.3461C52.5673 29.1493 55.3653 28.1272 58.0664 27.2942C58.7032 30.1661 59.1946 33.0682 59.5388 35.9896ZM33.7227 20.409C36.7766 11.5235 41.2953 6.10245 44.7796 6.10097C48.4904 6.09919 53.3117 11.9486 56.4644 21.4495C56.6692 22.0689 56.8628 22.6917 57.0452 23.3181C52.9033 24.6027 48.851 26.16 44.9148 27.9798C40.995 26.1386 36.9555 24.564 32.8237 23.2665C33.0999 22.3068 33.3996 21.3543 33.7227 20.409ZM31.801 27.2431C34.6185 28.1301 37.3895 29.1586 40.1034 30.3247C36.7407 32.0601 33.4649 33.9503 30.2761 35.9954C30.6613 32.933 31.174 29.9989 31.801 27.2431ZM30.2831 64.0143C31.8733 65.0323 33.4868 66.0127 35.1235 66.9554C36.7931 67.9166 38.4849 68.8375 40.1989 69.7181C37.4642 70.9245 34.6694 71.9898 31.8256 72.9097C31.1913 70.1156 30.673 67.13 30.2831 64.0143ZM56.4703 79.1127C55.1933 83.1789 53.1788 86.9753 50.5275 90.3122L50.5272 90.3125C49.872 91.2684 49.0278 92.0798 48.0466 92.6965C47.0655 93.3132 45.9683 93.7222 44.8229 93.8981C41.3275 93.9001 36.8661 88.6901 33.8313 80C33.4739 78.9726 33.1451 77.9358 32.8448 76.8896C36.9964 75.5503 41.0524 73.9311 44.9849 72.0431C48.9534 73.8746 53.038 75.4436 57.2122 76.7399C56.9842 77.5366 56.7369 78.3275 56.4703 79.1127ZM58.2091 72.7565C55.4769 71.9117 52.6383 70.8724 49.7508 69.658C51.3786 68.8014 53.0181 67.8967 54.6695 66.944C56.364 65.9654 58.0154 64.9624 59.6235 63.9349C59.3032 66.8977 58.8311 69.8421 58.2091 72.7566V72.7565ZM60.3512 49.9916C60.3548 52.9067 60.2638 55.8194 60.0782 58.7297C57.7134 60.3302 55.2167 61.8929 52.619 63.3926C50.0321 64.8862 47.469 66.2587 44.9547 67.5009C42.3089 66.2329 39.7141 64.8665 37.1703 63.4017C34.6408 61.9457 32.1693 60.3953 29.7558 58.7505C29.5352 55.8411 29.4241 52.9263 29.4224 50.0063L29.423 50.0072C29.421 47.0892 29.5297 44.1743 29.7491 41.2624C32.1134 39.6478 34.5919 38.0863 37.1545 36.6068C39.7288 35.1203 42.324 33.7536 44.9049 32.515C47.5182 33.785 50.0843 35.146 52.6033 36.5981C55.131 38.0509 57.6094 39.5847 60.0384 41.1997C60.247 44.1259 60.3514 47.0565 60.3516 49.9916H60.3512ZM64.9435 25.5461C74.1659 23.7523 81.1195 24.959 82.8615 27.976C84.7171 31.1902 82.0576 38.2888 75.4031 45.7665L75.4028 45.7668C75.0351 46.1793 74.6537 46.5935 74.2584 47.0095C71.016 44.0785 67.5777 41.3717 63.9675 38.9078C63.6031 34.6309 62.9529 30.3831 62.0213 26.193C63.0143 25.9487 63.9884 25.7331 64.9435 25.5461ZM64.3201 44.1926C66.7553 45.9706 69.0966 47.8737 71.3346 49.8943C69.1065 51.948 66.7726 53.884 64.3424 55.6941C64.4168 53.7936 64.4534 51.8922 64.4522 49.9897C64.4513 48.0569 64.4073 46.1246 64.3201 44.1926ZM82.8869 71.9786C81.1423 75.0082 74.4011 76.2715 65.3563 74.5602C64.3198 74.3646 63.2562 74.1316 62.1656 73.8615C63.0748 69.6175 63.6962 65.3169 64.0254 60.9891C67.6296 58.4822 71.057 55.7303 74.2833 52.7529C74.8479 53.3394 75.3849 53.9232 75.8944 54.5043V54.5039C78.7795 57.6409 81.0625 61.2823 82.6291 65.2459C83.1301 66.2909 83.4115 67.4275 83.4558 68.5855C83.5002 69.7436 83.3066 70.8984 82.8869 71.9786Z" stroke="#222831" stroke-width="4" stroke-linecap="round" mask="url(#path-1-outside-1_145_331)"/>
<defs>
<linearGradient id="paint0_linear_145_331" x1="2.56494" y1="98" x2="87.5649" y2="2" gradientUnits="userSpaceOnUse">
<stop stop-color="#04A0B6"/>
<stop offset="1" stop-color="#71EEFF"/>
</linearGradient>
</defs>
</svg>
