<svg width="101" height="100" viewBox="0 0 101 100" fill="none" xmlns="http://www.w3.org/2000/svg">
<path d="M76.9887 62.8947C73.2562 61.2819 72.0658 60.4909 71.4284 59.1622C71.1328 58.6107 70.9896 57.9904 71.0137 57.3651M76.9887 62.8947L81.159 57.1808C81.0668 57.2422 80.6982 56.8429 80.2911 56.2362C79.8299 55.4403 79.1745 54.7742 78.3861 54.3001C77.5978 53.826 76.7022 53.5594 75.783 53.5251M76.9887 62.8947C83.8623 65.8515 86.8037 67.8022 88.6316 70.5747L76.9887 62.8947ZM71.0137 57.3651C70.9983 54.8538 72.8722 53.3254 75.783 53.5251M71.0137 57.3651L70.0137 57.3712C70.0136 57.3639 70.0136 57.3567 70.0136 57.3494M71.0137 57.3651L70.0144 57.3266C70.0141 57.3342 70.0139 57.3418 70.0136 57.3494M75.783 53.5251L75.8202 52.5258C75.8255 52.526 75.8307 52.5262 75.8359 52.5264M75.783 53.5251L75.8514 52.5275C75.8462 52.5271 75.8411 52.5268 75.8359 52.5264M70.0136 57.3494C69.9873 58.1372 70.1675 58.9181 70.5364 59.6147C71.3628 61.3191 72.9339 62.232 76.5921 63.8127L76.5936 63.8133C83.46 66.767 86.1466 68.6223 87.7967 71.1251L87.7989 71.1285C89.6471 73.9078 90.0887 78.5259 88.8105 81.9236C87.4358 85.4937 84.0423 88.0309 78.9835 88.8917C76.6482 89.157 74.2889 89.1317 71.9598 88.8163C68.4813 88.2492 65.2722 86.5939 62.7938 84.0883C62.3996 83.6496 61.7885 82.8273 61.2757 82.0679C61.12 81.8374 60.9788 81.6206 60.8599 81.4301C60.8821 81.4178 60.9043 81.4057 60.9266 81.3937L60.9391 81.387L60.9514 81.38L64.4842 79.3524L64.4878 79.3504L66.4375 78.2208L66.491 78.3L66.4955 78.3066L66.5 78.3131C67.5475 79.8116 68.8806 81.0884 70.4228 82.0704L70.4581 82.0928L70.4951 82.1123C72.2051 83.01 74.2025 83.3878 76.0553 83.2921C77.8946 83.1971 79.7085 82.6273 80.9678 81.494L80.984 81.4794L80.9995 81.4641C81.8627 80.6163 82.4012 79.4926 82.5212 78.2886C82.6413 77.0847 82.3353 75.8768 81.6565 74.8752L81.6487 74.8635L81.6405 74.8522C81.1413 74.1584 80.4323 73.5819 79.3555 72.9545C78.2847 72.3306 76.7811 71.6179 74.6316 70.6796L74.6274 70.6778C69.7195 68.5625 67.7388 67.3089 65.9351 65.3662C64.8285 64.1014 64.0086 62.6124 63.5314 61.0013C63.1761 59.1089 63.1233 57.1721 63.3751 55.2632C64.3124 50.9414 67.5372 47.8924 72.3895 46.9642C74.6966 46.6819 77.0331 46.7463 79.3212 47.1551C81.4224 47.6476 83.3272 48.7339 84.8003 50.3009L84.8002 50.301L84.8077 50.3087C85.4405 50.9675 86.0105 51.6829 86.5107 52.4457C86.0961 52.7394 85.5284 53.1296 84.8844 53.5638C83.763 54.3199 82.4261 55.1989 81.2889 55.919C81.2413 55.8534 81.1909 55.7817 81.1386 55.7043C80.5936 54.7757 79.8246 53.9982 78.9015 53.4431C77.9729 52.8847 76.9185 52.5694 75.8359 52.5264M70.0136 57.3494C70.0099 55.8363 70.583 54.5311 71.6725 53.6507C72.7454 52.7837 74.2068 52.4176 75.8359 52.5264M1.16248 98V99H2.16248H98.1625H99.1625V98V2V1H98.1625H2.16248H1.16248V2V50V98ZM80.6274 56.3337C80.631 56.3315 80.6345 56.3294 80.638 56.3272C80.636 56.3284 80.634 56.3297 80.632 56.3309L80.6274 56.3337ZM55.99 50.1901V53.1165H44.5254H43.5254V54.1165V88.6211H36.6857V54.1088V53.1088H35.6857H24.1903V50.2688V50.2561L24.19 50.2434C24.1649 49.2527 24.1798 48.2615 24.2347 47.2722C24.3671 47.27 24.5138 47.2678 24.6743 47.2658C25.5361 47.2545 26.7793 47.2454 28.3115 47.2387C31.3751 47.2253 35.5854 47.2214 40.1922 47.2291H40.1938H55.9555L55.99 50.1901Z" fill="url(#paint0_linear_145_357)" stroke="#222831" stroke-width="2" stroke-linecap="round"/>
<defs>
<linearGradient id="paint0_linear_145_357" x1="2.19788" y1="98" x2="98.1979" y2="2" gradientUnits="userSpaceOnUse">
<stop stop-color="#007ACC"/>
<stop offset="1" stop-color="#4BB7FF"/>
</linearGradient>
</defs>
</svg>
